<mxfile host="app.diagrams.net" agent="Mozilla/5.0 (Windows NT 10.0; Win64; x64) AppleWebKit/537.36 (KHTML, like Gecko) Chrome/141.0.0.0 Safari/537.36" version="28.2.6">
  <diagram name="Page-1" id="r_tZU8X2ffdny4ACkfV3">
    <mxGraphModel dx="2688" dy="1160" grid="0" gridSize="10" guides="1" tooltips="1" connect="1" arrows="1" fold="1" page="1" pageScale="1" pageWidth="850" pageHeight="1100" math="0" shadow="0">
      <root>
        <mxCell id="0" />
        <mxCell id="1" parent="0" />
        <mxCell id="ghxn6bWZeJkdUQLqd-FK-19" value="" style="group" vertex="1" connectable="0" parent="1">
          <mxGeometry x="-750" y="40" width="637" height="533" as="geometry" />
        </mxCell>
        <mxCell id="ghxn6bWZeJkdUQLqd-FK-1" value="" style="shape=image;verticalLabelPosition=bottom;labelBackgroundColor=default;verticalAlign=top;aspect=fixed;imageAspect=0;editableCssRules=.*;image=data:image/svg+xml,PHN2ZyB4bWxuczp4bGluaz0iaHR0cDovL3d3dy53My5vcmcvMTk5OS94bGluayIgeG1sbnM9Imh0dHA6Ly93d3cudzMub3JnLzIwMDAvc3ZnIiBzdHlsZT0iY29sb3I6IHJnYigwLCAwLCAwKTsgZm9udC1zaXplOiBtZWRpdW07IGZvbnQtc3R5bGU6IG5vcm1hbDsgZm9udC12YXJpYW50LWxpZ2F0dXJlczogbm9ybWFsOyBmb250LXZhcmlhbnQtY2Fwczogbm9ybWFsOyBmb250LXdlaWdodDogNDAwOyBsZXR0ZXItc3BhY2luZzogbm9ybWFsOyBvcnBoYW5zOiAyOyB0ZXh0LWFsaWduOiBzdGFydDsgdGV4dC1pbmRlbnQ6IDBweDsgdGV4dC10cmFuc2Zvcm06IG5vbmU7IHdpZG93czogMjsgd29yZC1zcGFjaW5nOiAwcHg7IC13ZWJraXQtdGV4dC1zdHJva2Utd2lkdGg6IDBweDsgd2hpdGUtc3BhY2U6IG5vcm1hbDsgdGV4dC1kZWNvcmF0aW9uLXRoaWNrbmVzczogaW5pdGlhbDsgdGV4dC1kZWNvcmF0aW9uLXN0eWxlOiBpbml0aWFsOyB0ZXh0LWRlY29yYXRpb24tY29sb3I6IGluaXRpYWw7IiBvdmVyZmxvdz0iaGlkZGVuIiB4bWw6c3BhY2U9InByZXNlcnZlIiBoZWlnaHQ9IjQwMy45ODQyNTI5Mjk2ODc1IiB3aWR0aD0iNTQwLjAwMzExMjc5Mjk2ODgiIHZpZXdCb3g9Ii0wLjAwMDA2MTAzNTE1NjI1IC0wLjAwMDAxNTI1ODc4OTA2MjUgNTQwLjAwMzExMjc5Mjk2ODggNDAzLjk4NDI1MjkyOTY4NzUiPjxkZWZzPjxjbGlwUGF0aCBpZD0iY2xpcDAiPjxyZWN0IGhlaWdodD0iMzc2IiB3aWR0aD0iNTQwIiB5PSIxNzgiIHg9IjY5OSIvPjwvY2xpcFBhdGg+PGNsaXBQYXRoIGlkPSJjbGlwMSI+PHJlY3QgaGVpZ2h0PSIzNTgxNDAwIiB3aWR0aD0iNTE0MzUwMCIgeT0iMCIgeD0iMCIvPjwvY2xpcFBhdGg+PGltYWdlIGlkPSJpbWcyIiBwcmVzZXJ2ZUFzcGVjdFJhdGlvPSJub25lIiB4bGluazpocmVmPSJkYXRhOmltYWdlL2pwZWc7YmFzZTY0LC85ai80QUFRU2taSlJnQUJBUUVBWUFCZ0FBRC8yd0JEQUFNQ0FnTUNBZ01EQXdNRUF3TUVCUWdGQlFRRUJRb0hCd1lJREFvTURBc0tDd3NORGhJUURRNFJEZ3NMRUJZUUVSTVVGUlVWREE4WEdCWVVHQklVRlJULzJ3QkRBUU1FQkFVRUJRa0ZCUWtVRFFzTkZCUVVGQlFVRkJRVUZCUVVGQlFVRkJRVUZCUVVGQlFVRkJRVUZCUVVGQlFVRkJRVUZCUVVGQlFVRkJRVUZCUVVGQlQvd0FBUkNBR1ZBaHdEQVNJQUFoRUJBeEVCLzhRQUh3QUFBUVVCQVFFQkFRRUFBQUFBQUFBQUFBRUNBd1FGQmdjSUNRb0wvOFFBdFJBQUFnRURBd0lFQXdVRkJBUUFBQUY5QVFJREFBUVJCUkloTVVFR0UxRmhCeUp4RkRLQmthRUlJMEt4d1JWUzBmQWtNMkp5Z2drS0ZoY1lHUm9sSmljb0tTbzBOVFkzT0RrNlEwUkZSa2RJU1VwVFZGVldWMWhaV21Oa1pXWm5hR2xxYzNSMWRuZDRlWHFEaElXR2g0aUppcEtUbEpXV2w1aVptcUtqcEtXbXA2aXBxckt6dExXMnQ3aTV1c0xEeE1YR3g4akp5dExUMU5YVzE5aloydUhpNCtUbDV1Zm82ZXJ4OHZQMDlmYjMrUG42LzhRQUh3RUFBd0VCQVFFQkFRRUJBUUFBQUFBQUFBRUNBd1FGQmdjSUNRb0wvOFFBdFJFQUFnRUNCQVFEQkFjRkJBUUFBUUozQUFFQ0F4RUVCU0V4QmhKQlVRZGhjUk1pTW9FSUZFS1JvYkhCQ1NNelV2QVZZbkxSQ2hZa05PRWw4UmNZR1JvbUp5Z3BLalUyTnpnNU9rTkVSVVpIU0VsS1UxUlZWbGRZV1ZwalpHVm1aMmhwYW5OMGRYWjNlSGw2Z29PRWhZYUhpSW1La3BPVWxaYVhtSm1hb3FPa3BhYW5xS21xc3JPMHRiYTN1TG02d3NQRXhjYkh5TW5LMHRQVTFkYlgyTm5hNHVQazVlYm42T25xOHZQMDlmYjMrUG42LzlvQURBTUJBQUlSQXhFQVB3RDlVNktLS0FDaWlpZ0Fvb29vQUtLS0tBQ2lpaWdBb29vb0FLS0tLQUNpaWlnQW9vb29BS0tLS0FDaWlpZ0Fvb29vQUtLS0tBQ2lpaWdBb29vb0FLS0tLQUNpaWlnQW9vb29BS0tLS0FDaWlpZ0Fvb29vQUtLS0tBQ2lpaWdBb29vb0FLS0tLQUNpaWlnQW9vb29BS0tLS0FDaWlpZ0Fvb29vQUtLS0tBQ2lpaWdBb29vb0FLS0tLQUNpaWlnQW9vb29BS0tLS0FDaWlpZ0Fvb29vQUtLS0tBQ2lpaWdBb29vb0FLS0tLQUNpaWlnQW9vb29BS0tLS0FDaWlpZ0Fvb29vQUtLS0tBQ2lpaWdBb29vb0FLS0tLQUNvN2lZVzl2TEtWWnhHcGJhZ3l4d000QTdtcEtLQVBOL2doOGVmRG54NTBHOTFEUWhjV2x4WVhMV3Q1cDE4b1M0dDNCT055Z25nZ2NIMkk2ZzE2T2VBY0RKOUsrTi9qeG8xMSt5ejhidE4rTTNoNkJ4NFQxdVpiSHhUcDhBK1VGanhNQjZuNzMrOFA5dXZyL1M5VHRkYTAyMTFDeG5TNXM3cUpaNFpvemxYUmdDckEraEJGTnJxaVUralBtUHhOL3dVQjhNZUVmRjJvK0dOUjhGZUswMXF3bGFLYTFqdDRuYkkvaUdKT1ZJd1FlNElOVlArSGlQaGYvb1F2R3YvQUlMMC93RGk2dS90ai9DM1U5TmZTL2pQNElRd2VNZkNaRXQwc1EvNC9MTWZlVmdQdmJRVG4xVXNPd3IzVDRTL0VyUy9pOThQZEc4VjZTdyt6YWhDSGFMT1doa0hEeHQ3cXdJL1h2VmFXdlluVzlybno5L3c4UjhML3dEUWhlTmYvQmVuL3dBWFIvdzhSOEwvQVBRaGVOZi9BQVhwL3dERjE5WVlIb0tNRDBGSzY3RldmYytUeC93VVU4SXB6TDRIOFp4TDNZNmVuSC9qOVhiTC9nb3o4S1pYQzMwUGlIU1NlcHV0TjRIL0FIeXhyNmlLS2VvQi9DcVY5b0dtYW1oUzgwNjB1MFBWWjRGY0g4eFJkZGdzKzU1TjRhL2JJK0RmaWxrUzE4ZGFmYlN0MGp2dzlzZnprVUQ5YTlZMGJ4RHBmaUsyRnpwV3BXbXAyNTVFdG5Pc3EvbXBOY0o0bS9acCtGbmk1Vy90UHdIb2NyTjFraHRGZ2Y4QTc2ajJtdkpkYS80SjllQ3JlNU45NEo4UWVJdkFlb2c1U1RUcjFualUvd0M2eDNmK1BVYUI3eDlTMFY4anRvbjdVSHdWK2ZUOVcwdjR1NkhGejludkY4bTkyK3hPQ1Qvd0p2cFhTZUJQMjUvQ0dxYXF1ZytPdE4xRDRhK0l3UXIyMnR4RllDM3RMZ1lIdXdBOTZPWHNITXVwOUtVVkJaWDF0cVZwRmRXZHhGZFcwcWhvNW9YRG80OVFSd1JVOVNVRkZGRkFCUlJSUUFVVVVVQUZGRkZBQlJSUlFBVVVVVUFGRkZGQUJSUlJRQVVVVVVBRkZGRkFCUlJSUUFWNXY0ei9BR2pmaHA4UE5mbTBUeEY0eDA3U3RXaFZXa3RKbVl1Z1laWE9BY1pCQi9HdlNLNGZ4VDhFUGgvNDMxaVRWZGY4SGFOcStwU0txdmQzZG9qeU1BTUFGaU1uQTRwcTNVVHYwT1QvQU9HeFBneC8wVUhTdnprLytKby80YkUrREgvUlFkSy9PVC80bXRiL0FJWmkrRTMvQUVUenc5LzRBSi9oUi93ekY4SnYraWVlSHY4QXdBVC9BQXA2Qzk0eWYrR3hQZ3gvMFVIU3Z6ay8rSm8vNGJFK0RIL1JRZEsvT1QvNG10Yi9BSVppK0UzL0FFVHp3OS80QUovaFIvd3pGOEp2K2llZUh2OEF3QVQvQUFvMEQzakovd0NHeFBneC93QkZCMHI4NVA4QTRtai9BSWJFK0RIL0FFVUhTdnprL3dEaWExditHWXZoTi8wVHp3OS80QUovaFIvd3pGOEp2K2llZUh2L0FBQVQvQ2pRUGVNbi9oc1Q0TWY5RkIwcjg1UC9BSW11TCtMbjdlWHc1OEZlQ3JyVVBDdXMyWGkvWFN3aXR0T2daMUc0L3dBYmtxTUlNYzQ1UEE3NXIwci9BSVppK0UzL0FFVHp3OS80QUovaFhGZkYvd0RZcStIUHhCOEVYZWw2TG9XbmVFdFdCRXR0cWVuV2lxeU9NL0t3R055SE9DTSsvYWhjb256SGl2d0Yvd0NDa0RlSS9GUjByNGxXZW1hSHA4NnMwT3JXUWtXT0ZnTWhaRkpZNFBRTU8rTWptdm9uL2hzVDRNZjlGQjByODVQL0FJbXZrUDhBWVIvWlY4UC9BQkJtMVR4ajRwTVdzV1dsWDAybXc2UExEdWhsa1ZSbVdUUFVBTnd1T3ZKcjdTLzRaaStFMy9SUFBEMy9BSUFKL2hWUzVia3g1bWpKL3dDR3hQZ3gvd0JGQjByODVQOEE0bWovQUliRStESC9BRVVIU3Z6ay93RGlhMXYrR1l2aE4vMFR6dzkvNEFKL2hSL3d6RjhKditpZWVIdi9BQUFUL0NwMEw5NHlmK0d4UGd4LzBVSFN2emsvK0pvLzRiRStESC9SUWRLL09ULzRtdGIvQUlaaStFMy9BRVR6dzkvNEFKL2hSL3d6RjhKditpZWVIdjhBd0FUL0FBbzBEM2pKL3dDR3hQZ3gvd0JGQjByODVQOEE0bWovQUliRStESC9BRVVIU3Z6ay93RGlhMXYrR1l2aE4vMFR6dzkvNEFKL2hSL3d6RjhKditpZWVIdi9BQUFUL0NqUVBlTW4vaHNUNE1mOUZCMHI4NVAvQUltai9oc1Q0TWY5RkIwcjg1UC9BSW10Yi9obUw0VGY5RTg4UGY4QWdBbitGSC9ETVh3bS93Q2llZUh2L0FCUDhLTkE5NHlmK0d4UGd4LzBVSFN2emsvK0pvLzRiRStESC9SUWRLL09ULzRtdGIvaG1MNFRmOUU4OFBmK0FDZjRVZjhBRE1Yd20vNko1NGUvOEFFL3dvMEQzakovNGJFK0RIL1JRZEsvT1QvNG1qL2hzVDRNZjlGQjByODVQL2lhMXY4QWhtTDRUZjhBUlBQRDMvZ0FuK0ZIL0RNWHdtLzZKNTRlL3dEQUJQOEFDalFQZU1uL0FJYkUrREgvQUVVSFN2emsvd0RpYVA4QWhzVDRNZjhBUlFkSy9PVC9BT0pyVy80WmkrRTMvUlBQRDMvZ0FuK0ZIL0RNWHdtLzZKNTRlLzhBQUJQOEtOQTk0eWYrR3hQZ3gvMFVIU3Z6ay84QWlhUCtHeFBneC8wVUhTdnprLzhBaWExditHWXZoTi8wVHp3OS93Q0FDZjRVZjhNeGZDYi9BS0o1NGUvOEFFL3dvMEQzakovNGJFK0RIL1JRZEsvT1QvNG1qL2hzVDRNZjlGQjByODVQL2lhMXYrR1l2aE4vMFR6dzkvNEFKL2hSL3dBTXhmQ2Ivb25uaDcvd0FUL0NqUVBlTW4vaHNUNE1mOUZCMHI4NVAvaWFQK0d4UGd4LzBVSFN2emsvK0pyVy93Q0dZdmhOL3dCRTg4UGYrQUNmNFVmOE14ZkNiL29ubmg3L0FNQUUvd0FLTkE5NDRueC8rMGQ4QnZpUDRNMWp3MXEvanpTWmRQMU8zYTNrQjM1WEk0WWZMMVU0STl3SzRuL2duMThXWTlaOE1hNThPTG5WSXRVdXZDMDdEVDd5TmlWdXJFdVFyTG5uQ3QrUVpSWHRuL0RNWHdtLzZKNTRlLzhBQUJQOEsrZS9qUDRQMGY4QVpkL2FEK0dYeEE4TWFaYjZGNFkxT1Z0QzFpMnM0eEhDTjU0Y2djZERuL3RrS2FzOUNYZE83UHM2ZUNPNWdraG1SWllwRktPampJWlNNRUVlbGZJSHdGYVQ5bkQ5cGp4UDhJN2wyVHd0NGpCMW53NlhQeW8yQ1dpSDRLeS9XTWV0ZllRSUl5T1JYeTUrM240VXU3WHdaNGQrSm1pcVYxN3dUcVVWNEpFSEp0MmRRNFBzR0NINkZxUzdEbDNQcVNpc2J3WjRvdFBHM2hMUnZFRmd3ZXoxTzBpdTRpRDBEcUd4K0djZmhXelVsaFJSUlFBVVVVVUFGY3Y0KytHSGhUNG9hUzJuZUtkQ3M5YXRTTUw5cGpCZVAzUng4eW4zQkZkUlJRQjhoYWorelQ4Ui93Qm55NmwxbjRIK0o1dFIwZ01aSnZCdXVTZVpFNDdpSmpnWi93QytXLzJqWG9Id1YvYTc4UDhBeEkxWStGL0VsbE40RzhlUXQ1YzJpYXJsQkkvZnluWURkL3VuQjlNOWE5OXJ5MzQzL3M1ZUQvanhwSWkxeXoremF0Q3YraDYxWmdKZFd6ZHNOL0V1ZjRUeDlEelZYdnVSYTJ4NmxSWHgxNFcrTlBqbjlsWHhGWitEZmpJMG11ZUQ3aHhEcFhqYUZTMndka243bkE2NStZZjdRNUgxNXAybzJ1cjJGdmUyTnhGZDJkd2draG5oY09raWtaREtSd1FhVFZpazdsbWlpaWtNS0tLS0FDaWlpZ0Fvb29vQUtLS0tBQ2lpaWdBb29vb0FLS0tLQUNpaWlnQW9vb29BS0tLS0FDaWlpZ0Fvb29vQUtLS0tBQ21UZjZwLzkwMCttVGY2cC84QWROQUh5bi93VG0vNUpUNHMvd0N4bnV2L0FFQ092cSt2bEQvZ25OL3lTbnhaL3dCalBkZitnUjE5WDFVdHlZL0Nnb29vcVNnb29vb0FLS0tLQUNpaWlnQW9vb29BS0tLS0FDaWlpZ0Fvb29vQUtLS0tBQ2lpaWdBcncvOEFiUjhDRHg3K3puNHNnU1BmZWFkQ05VdGlCeXJ3bmNjZjhBM2o4YTl3cW5yT21SYTFwRjlwODREUTNjRWtEZzkxWlNwL1EwMW94TlhWamhQMmMvSEorSS93UDhHYSs3K1pjWE9uUnBPMmYrV3FEeTN6L3dBQ1VtdXA4ZStGTGZ4ejRKMTN3OWRLR2cxT3ltdEdCN2IwSUIvQWtIOEsrZGYrQ2QycFN4L0NEWHZEVTdFemVIdGZ1clBhZXFxY05qL3ZvdlgxUlE5R0phbytadjhBZ243NHB1TlUrQjB2aHkvWS93Qm8rRnRUdU5Ma1J1cXFHM3IvQU9oTVArQTE5TTE4bC9zMGovaERmMnN2anI0Ulg5M2IzVTBPc3d4OXZtTzQ0LzcvQUEvS3ZyU25MY0k3QlJSUlVsQlJSUlFBVVVVVUFGRkZGQUdMNHc4SGFONCs4TzN1aGEvcDhPcDZWZHBzbHQ1MXlENkVkd1IxQkhJcjVDc3RSOFRmc0dlTDRkTzFPYTc4UmZCTFZiamJiWGJBeVRhTkl4KzZmYjI2TU9SaHNnL2E5WlBpcndycFhqYnc5ZjZIcmRsRnFHbDMwUmhudDVSa01wL2tSMUI2Z2pOTk94TFY5aTNwT3JXV3ZhWmE2anAxMUZlMkYxR3MwRnhDd1pKRVlaREE5d1JWdXZpNzRkZUlkVi9ZdStLc1B3NDhVM2t0NThNTmZtWi9EMnN6bklzcEdQOEFxWFBRREpBUG9TR0hCTmZhQUlZQWc1QjZFVU5XR25jV2lpaWtNS0tLS0FDaWlpZ0Fvb29vQUtLS0tBQ2lpaWdBb29vb0FLS0tLQUNpaWlnQW9vb29BS0tLS0FDaWlpZ0Fvb29vQUtaTi9xbi9BTjAwK21UZjZwLzkwMEFmS2Y4QXdUbS81SlQ0cy83R2U2LzlBanI2dnI1US93Q0NjMy9KS2ZGbi9ZejNYL29FZGZWOVZMY21Qd29LS0tLa29LS0tLQUNpaWlnQW9vb29BS0tLS0FDaWlpZ0Fvb29vQUtLS0tBQ2lpaWdBb29vb0FLS0tLQVBrMzlqUWYyVDhZLzJnZEZYNVk0ZkVRblZmVGM4MytBcjZ5cjVOL1pWL2VmdE9mdEVTTDl6KzFZVi9IZkxYMWxWUzNKanNmSmxnZjdIL0FPQ2orb3F2eXJxdmhWV1llcFVML3dERzYrczYrVE5WL2VmOEZJZEcyL3dlRkgzL0FQa1QvRVY5WjBTNkJIcUZGRkZTVUZGRkZBQlJSUlFBVVVVVUFGRkZGQUhCZkc3NFA2UDhjZmg1cVBoZlYwQytjdSsxdWdNdmF6Z2ZKSXYwUFVkd1NPOWVRL3NlL0Z2V0pmN1grRW5qcHpINDM4Skh5VWVWc205dEJnSTRKKzl0QlhudXBVK3RmVGRmQ3Z4bjAzVWZqcisySFk2YjhMZFFQaDdYL0RPbnZIclBpcTN5VmlQSUVaQSs4UnUyZTVZaitHcVd1aEV0SGMrNnFLK1RQK0didjJnZitqZ0ovd0R3QlA4QWpSL3d6ZCswRC8wY0JQOEErQUoveG9zdTQ3dnNmV2RGZkpuL0FBemQrMEQvQU5IQVQvOEFnQ2Y4YVA4QWhtNzlvSC9vNENmL0FNQVQvalJaZHd1K3g5WjBWelB3MTBEWFBDL2dqU3RMOFNhODNpZlc3ZU1yYzZxMFFpTTUzRWc3UjZBZ2UrTTEwMVNVRkZGRkFCUlJSUUFVVVVVQUZGRkZBQlJSUlFBVVVVVUFGRkZGQUJSUlJRQVVVVVVBRkZGRkFCVEp2OVUvKzZhZlRKdjlVLzhBdW1nRDVULzRKemY4a3A4V2Y5alBkZjhBb0VkZlY5ZktIL0JPYi9rbFBpei9BTEdlNi84QVFJNityNnFXNU1maFFVVVVWSlFVVVVVQUZGRkZBQlJSUlFBVVVVVUFGRkZGQUJSUlJRQVVVVVVBRkZGRkFCUlJSUUFVVVZoZU8vRWNYaER3VHIrdVRNRWowNndudWlUL0FMQ0Z2NlVBZk5QN0R4L3RyeHg4ZFBFWTVqdnZFN1JSdjZoR2tQOEFKeFgxblh6UC93QUU5L0RzdWxmczgyK3FYQ2tYT3ZhamRhaXpIcXdMYkFmL0FDSG44YSttS3FXNU1kajVNOEtqL2hJZitDaTNpKzVUNW85RjhOUlFFK2pNSXVQL0FCODE5WjE4bC9zZEgvaE5QalA4Y3ZIMzM0THpXQnB0cko2eHhsdW40Q092clNpVzRSMnVGRkZGU1VGRkZGQUJSUlJRQVVVVVVBRkZGZVovSHo0OGFEOEEvQmN1c2Fxd3VkUW16RnAybHh0Kzl2SnV5Z2RsSEdXN0QzSUZHNGJISmZ0WC9INlg0VGVHTGJRZkRhRy8rSUhpSS9aTklzWVJ1ZU1zZHBtSTlpY0QxYjJCclcvWmUrQTBYd0srSHEydDI0dlBGT3FQOXQxbS9KM05MTzNPemQzVmNrZTVKUGV1Qy9aaitCK3U2bjRsdXZqSjhVRk54NDQxZGQxaFlTajVkS3R5UGxVS2Z1dHRPTWZ3ajNKcjZncW5wb2lGcnF3b29vcVN3b29vb0FLS0tLQUNpaWlnQW9vb29BS0tLS0FDaWlpZ0Fvb29vQUtLS0tBQ2lpdm4vd0NMdjdXeWZDanh2ZGVIRDhPL0ZldkdDT04vdCtuV3U2Q1RjdWZsYnZqT0Q3ZzAwcmlidHVmUUZGZkpuL0RmMGY4QTBTUHh4LzRCMGY4QURmMGYvUkkvSEgvZ0hUNVdMbVI5WjBWOG1mOEFEZjBmL1JJL0hIL2dIUi93MzlIL0FORWo4Y2YrQWRIS3c1a2ZXZEZmSm4vRGYwZi9BRVNQeHgvNEIwZjhOL1IvOUVqOGNmOEFnSFJ5c09aSDFuWHpGOFFQMnJ0ZjE3eGpxUGd2NE5lRWYrRTMxalR5WTlRMVdkOWxoYU4wSzdzZ01RY2pPNERJT00xeFB4Qi9ibjFQWC9BK3U2Wm9Qd3g4WjZickY1WnlXOXJlVFdaMnd1eWxRNXdNOFp6eDNyMm45a1g0ZTIzdzgvWjc4TTI2V2JXdW9YOW9OUTFCcFVLeXZQSU54MzU1eUFRdUQweFJhMnJGZm0wUjhmOEE3S3Z4bStKUHdlOEJhOXF0cjREWHhUNEZUV1o1TlV1TEdURjFhemJVOHdoY25LQWJUeXVPdklyOUFmaG44UzlBK0xuZzZ4OFMrRzd3WG1tM1E3akR4T1B2UnV2OExBOVIvU3Zuai9nblFxdjhKL0Z5c0F5bnhOZGdnaklJMlIxNTdvbnhDdlAyUnZqOThUdEhzdkJldjY3NE4xUzRpdmJLMjBpMVpvNEptUU8yMGtiY2ZPVjQvdWowcW1yc2xPeVI5NVVWOG1mOE4vUi85RWo4Y2Y4QWdIU0g5djZNQW4vaFVmamY4YlQvQU90VThyTDVrZldsRmZqNTR0L2JSK0xPdmVPcDlmdGZGVjlvOFN6bHJmUzdac1cwS0E4STBlTVB4d1MyU2VhK3ZQQy8vQlFlYTg4T2FaUGZmQzN4WGUza2x1aG11ZE90ZDF2SytQbWFNLzNTZVJUY0dpVk5NK3g2SytUUCtHL28vd0Rva2Zqai93QUE2UDhBaHY2UC9va2Zqai93RHBjcks1a2ZXZEZmSm4vRGYwZi9BRVNQeHgvNEIwZjhOL1IvOUVqOGNmOEFnSFJ5c09aSDFuUlh5Wi93MzlIL0FORWo4Y2YrQWRIL0FBMzlILzBTUHh4LzRCMGNyRG1SOVowVjhtZjhOL1IvOUVqOGNmOEFnSFIvdzM5SC93QkVqOGNmK0FkSEt3NWtmV2RGZkpuL0FBMzlILzBTUHh4LzRCMGY4Ti9SL3dEUkkvSEgvZ0hSeXNPWkgxblJYeVovdzM5SC93QkVqOGNmK0FkSC9EZjBmL1JJL0hIL0FJQjBjckRtUjlaMFY4bWY4Ti9SL3dEUkkvSEgvZ0hSL3dBTi9SLzlFajhjZitBZEhLdzVrZldkRmZKbi9EZjBmL1JJL0hIL0FJQjBmOE4vUi84QVJJL0hIL2dIUnlzT1pIMW5YemQrM3g0MGw4UGZBbWZRYkVsdFc4VTNrT2tXMFMvZVlNd1o4Zmd1My9nVmM2UDIvb3ovQU0wajhiLytBZjhBOWF1SjhIZVBKZjJ5L3dCcWJ3emZmMkplNk40WDhCMnozczlqcUFIbWZheStGM0FjQTdnbkhYRVpwcE5hc2x5VFZrZllQd3Y4R3hmRDM0ZGVHL0RVSUFYUzdDRzJPTzdLZzNIOFd5ZnhySitQUGo2UDRZZkI3eFo0a2R3a2xsWVNlUms0ek13MlJqL3Z0bHJ2cStSLzJ5dFFtK0t2eEMrSHZ3UjB1UXMyclhxYW5yQmo1OHExanpqZCtBa2IvZ0srdFN0V1U5RWQ3K3cvNERrOENmczYrSGZ0S0ZiL0FGZmZxMXh1SHpFeW5LWi80QUVyM3VvTEd5aDAyeXQ3UzJqRVZ2QkdzVWNhOUZWUmdBZlFDcDZHN3NhVmxZS0tLS1F3b29vb0FLS0tLQUNpbzU1NHJXRjVwcEVoaGpVczhrakJWVURxU1QwRmZML3hML2E5dS9FZXZ5ZUJ2Z2xwWjhhZUxIeWt1cW91YkN4SFF1WDZOajF6dDl6MHBwWEUzWTlLK1A4QSswZjRjK0F1aUlid25WUEVkNE51bmFGYW5kUGN1ZUFTQmtxbWUrUFlaTmVZZkEvOW4zeEg0NjhaeC9GdjR6WXUvRXI0ZlNmRDdEOXhwVWZWY3AwM2pzdlk4bkxkT2wrQkg3S1Z2NEYxcC9HL2pyVW04YS9FZTdQbVM2bGRaZUswSi9oaEI5T203QTlnQlgwSlR2YlltMTlXRkZGRlNXRkZGRkFCUlJSUUFVVVVVQUZGRkZBQlJSUlFBVVVVVUFGRkZGQUJSUlJRQVVVVVVBRkZGRkFCUlJSUUFVVVVVQUZGRkZBQlRKdjlVLzhBdW1uMHliL1ZQL3VtZ0Q1VC93Q0NjMy9KS2ZGbi9ZejNYL29FZGZWOWZLSC9BQVRtL3dDU1UrTFAreG51di9RSTYrcjZxVzVNZmhRVVVVVkpSOEEvR2Y4QVp6OENTL3RyZUJkQlhTVEJvM2lhM20xRFVyT0dWa1NTVmZOYjVjZmRERkJrRDM2WnI3MTAzVHJYUjlQdHJHeHQ0N1d6dG8xaGhnaVhha2FLTUtvSFlBQ3ZsYjR3L3dESi9Id2Ivd0N3VGRmK2d6MTlaVmN0a1JGV2JDaWlpb0xDaWlpZ0Fvb29vQUtLS0tBQ2lpaWdBb29vb0FLS0tLQUNpaW1UVEpieFBMSXdTTkZMTXpIQUFISkpvQTgwL2FOK01scDhEZmhUcS9pT1ZsZlVObjJiVHJjOVpybHdRZ3gzQTVZK3ltdVMvWTErRU4zOE1maFdOUzF3TS9penhOTWRXMVNXWC9XQm41Ukc5d0RrKzdOWGxIaGxadjIwL3dCb1VlSko0M2I0VWVCNXltbnh5RENhamRnZzc4ZHhrQmo2S0ZIOFJyN1Nxbm9yRUxWM01ieGo0czAzd0o0VzFUeEJxODR0dE4wNjNlNG5rUFpWR2NEMUo0QUhja1Y4MGZzWitHTlMrSUhpVHhaOGMvRTBEUjZqNGxtYTMwaUdUL2wzc2xPUGw5anRWUjdJVDNyemI5ci9BT1BuaDM0bWZGRFNmaFJONGtpMFR3VFlYYXkrSk5XWGM0bGRPZklYWUNUdHhqcGpjZjhBWnIzalJmMnh2Z0w0ZDBleTB2VHZHVmxhV0ZuQ2x2QkJIYVRoVVJSaFFQM2ZvS2Rta0s2YlBvR2l2Qy8rRzMvZ2wvMFBWci80Q3ovL0FCdWovaHQvNEpmOUQxYS8rQXMvL3dBYnFiTXJtWGM5MG9yd2lUOXVQNEpScm4vaE9MZHZaYlM0UC90T3NUVXYrQ2hId1hzTWlIWEw3VVc3TGFhZEtTZisrZ3RGbUhNdTU5SlVWOG5TZnQrVy9pQnpGNEorRjNqRHhUTWVFYjdMNVNIOFZEMUdmRzM3Vkh4TytUUi9CK2gvRGV4azQrMWF0S0pwMUhydE9lZitBVStWOVE1bDBQcTIvd0JRdGRLdEpMcTl1WWJPMmpHNTVwNUFpS1BVazhDdm5qNGhmdHllQ2RBMUE2SjRNdHJ6NGplSjNPeUt4ME9NdkZ1LzJwUUNDUDhBZERWejFqK3c5cVBqbTdqdi9pOThTdGI4YXlnN2pwMXRJYmUwVStnSFBIKzZGcjZEK0gvd204SC9BQXMwOFdmaFh3OVk2TEVSaG50NGg1a24rKzV5emZpVFJvZzFaODJKOEZQakgrMHpNbDE4V05jUGdmd2V6QjE4SjZJK0pwVjdDWjhrZjk5Rmovc2l2cGI0Yy9DN3d2OEFDZlFJOUc4SzZQYjZUWkxqZDVTNWtsYis4N25sajdrMTFWRkp1NEpKQlJSUlNLQ2lpaWdBb29vb0FLS0tLQUNpaWlnQW9vb29BS0tLS0FDaWlpZ0Fvb29vQUtLS0tBQ2lpaWdBb29vb0FLS0tLQUNpaWlnQW9vb29BS1pOL3FuL0FOMDArbVRmNnAvOTAwQWZLZjhBd1RtLzVKVDRzLzdHZTYvOUFqcjZ2cjVRL3dDQ2MzL0pLZkZuL1l6M1gvb0VkZlY5VkxjbVB3b0tLS0trbytUZmpEL3lmeDhHL3dEc0UzWC9BS0RQWDFsWHliOFlmK1QrUGczL0FOZ202LzhBUVo2K3NxcDdJbGRRb29vcVNnb29vb0FLS0tLQUNpaWlnQW9vb29BS0tLS0FDaWlpZ0Fwcm9zaWxXQVpTTUVFWkJGT29vQXp0QThPYVY0VjAxTlAwYlRiWFNyQkdaMXRyT0ZZb3dXT1NkcWdESk5hQkFJSVBRMHRGQUhCeS9BWDRielNQSko0RDhPdkk1TE03YVpDU3hQVWs3YWIvQU1LQitHbi9BRUlQaHY4QThGY1Avd0FUWGZVVTdzVmtjRC93b0g0YWY5Q0Q0Yi84RmNQL0FNVFIvd0FLQitHbi9RZytHLzhBd1Z3Ly9FMTMxRkYyRmtjSkg4QnZodENjcDRDOE5xZlgreTRmL2lhMnRPK0hmaFhSeURZZUdkSHNpT2h0N0NKQ1B5V3Vob3BCWkRZNDFpUUtpaEZIUlZHQUtkUlJRTUtLS0tBQ2lpaWdBb29vb0FLS0tLQUNpaWlnQW9vb29BS0tLS0FDaWlpZ0Fvb29vQUtLS0tBQ2lpaWdBb29vb0FLS0tLQUNpaWlnQW9vb29BS0tLS0FDaWlpZ0FwazMrcWYvQUhUVDZaTi9xbi8zVFFCOHAvOEFCT2IvQUpKVDRzLzdHZTYvOUFqcjZ2cjVRLzRKemY4QUpLZkZuL1l6M1gvb0VkZlY5VkxjbVB3b0tLS0trbytUZmpEL0FNbjhmQnYvQUxCTjEvNkRQWDFsWHliOFlmOEFrL2o0Ti84QVlKdXYvUVo2K3NxcDdJbGRRb29vcVNnb29vb0FLS0tLQUNpaWlnQW9vb29BS0tLS0FDaWlpZ0Fvb29vQUtLS0tBQ2lpaWdBb29vb0FLS0tLQUNpaWlnQW9vb29BS0tLS0FDaWlpZ0Fvb29vQUtLS0tBQ2lpaWdBb29vb0FLS0tLQUNpaWlnQW9vb29BS0tLS0FDaWlpZ0Fvb29vQUtLS0tBQ2lpaWdBb29vb0FLS0tLQUNtVGY2cC85MDArbVRmNnAvOEFkTkFIeW4vd1RtLzVKVDRzL3dDeG51di9BRUNPdnErdmxEL2duTi95U254Wi93QmpQZGYrZ1IxOVgxVXR5WS9DZ29vb3FTajVOK01QL0ovSHdiLzdCTjEvNkRQWDFsWHliOFlmK1QrUGczLzJDYnIvQU5CbnI2eXFuc2lWMUNpaWlwS0NpaWlnQW9vb29BS0tLS0FDaWlpZ0Fvb29vQUtLS0tBQ2lpaWdBb29vb0FLS0tLQUNpaWlnQW9vb29BS0tLS0FDaWlpZ0Fvb29vQUtLS0tBQ2lpaWdBb29vb0FLS0tLQUNpaWlnQW9vb29BS0tLS0FDaWlpZ0Fvb29vQUtLS0tBQ2lpaWdBb29vb0FLS0tLQUNpaWlnQW9vb29BS1pOL3FuL3dCMDArbVRmNnAvOTAwQWZLZi9BQVRtL3dDU1UrTFAreG51di9RSTYrcjYrVVArQ2MzL0FDU254Wi8yTTkxLzZCSFgxZlZTM0pqOEtDaWlpcEtQazM0dy93REovSHdiL3dDd1RkZitnejE5WlY4bS9HSC9BSlA0K0RmL0FHQ2JyLzBHZXZyS3FleUpYVUtLS0trb0tLS0tBQ2lpaWdBb29vb0FLS0tLQUNpaWlnQW9vb29BS0tLS0FDaWlpZ0Fvb29vQUtLS0tBQ2lpaWdBb29vb0FLS0tLQUNpaWlnQW9vb29BS0tLS0FDaWlpZ0Fvb29vQUtLS0tBQ2lpaWdBb29vb0FLS0tLQUNpaWlnQW9vb29BS0tLS0FDaWlpZ0Fvb29vQUtLS0tBQ2lpaWdBcGszK3FmL2ROUHBrMytxZi9BSFRRQjhwLzhFNXYrU1UrTFA4QXNaN3Ivd0JBanI2dnI1US80SnpmOGtwOFdmOEFZejNYL29FZGZWOVZMY21Qd29LS0tLa28rVGZqRC95Zng4Ry8rd1RkZitnejE5WlY4bS9HSC9rL2o0Ti85Z202L3dEUVo2K3NxcDdJbGRRb29vcVNnb29vb0FLS0tLQUNpaWlnQW9vb29BS0tLS0FDaWlpZ0Fvb29vQUtLS0tBQ2lpaWdBb29vb0FLS0tLQUNpaWlnQW9vb29BS0tLS0FDaWlpZ0Fvb29vQUtLS0tBQ2lpaWdBb29vb0FLS0tLQUNpaWlnQW9vb29BS0tLS0FDaWlpZ0Fvb29vQUtLS0tBQ2lpaWdBb29vb0FLS0tLQUNtVGY2cC84QWROUHBrMytxZi9kTkFIeW4vd0FFNXY4QWtsUGl6L3NaN3IvMENPdnErdmxEL2duTi93QWtwOFdmOWpQZGYrZ1IxOVgxVXR5WS9DZ29vb3FTajVOK01QOEF5Zng4Ry84QXNFM1gvb005ZldWZkp2eGgvd0NUK1BnMy93QmdtNi85Qm5yNnlxbnNpVjFDaWlpcEtDaWlpZ0Fvb29vQUtLS0tBQ2lpaWdBb29vb0FLS0tLQUNpaWlnQW9vb29BS0tLS0FDaWlpZ0Fvb29vQUtLS0tBQ2lpaWdBb29vb0FLS0tLQUNpaWlnQW9vb29BS0tLS0FDaWlpZ0Fvb29vQUtLS0tBQ2lpaWdBb29vb0FLS0tLQUNpaWlnQW9vb29BS0tLS0FDaWlpZ0Fvb29vQUtaTi9xbi8zVFQ2Wk4vcW4vd0IwMEFmS2YvQk9iL2tsUGl6L0FMR2U2LzhBUUk2K3I2K1VQK0NjMy9KS2ZGbi9BR005MS82QkhYMWZWUzNKajhLQ2lpaXBLUGszNHcvOG44ZkJ2L3NFM1gvb005ZldWZkp2eGgvNVA0K0RmL1lKdXY4QTBHZXZyS3FleUpYVUtLS0trb0tLS0tBQ2lpaWdBb29vb0FLS0tLQUNpaWlnQW9vb29BS0tLS0FDaWlpZ0REdXZIWGh1eHVaYmU1OFE2VmIzRVRGWklwYjJKWFFqcUNDMlFhaS80V0w0VS82R2ZSdi9BQVlSZi9GVjhUZkM3OW52d1Y4ZHYyamZqcVBGK256WHcwM1dRYmZ5Ymw0ZHU5NWQyZHBHZnVqclh0SC9BQTcxK0NuL0FFQUwzL3daVGY4QXhWVlpJaE5zOXgvNFdMNFUvd0NobjBiL0FNR0VYL3hWSC9DeGZDbi9BRU0ramY4QWd3aS8rS3J3Ny9oM3I4RlArZ0JlL3dEZ3ltLytLby80ZDYvQlQvb0FYdjhBNE1wdi9pcU5CKzhlNC84QUN4ZkNuL1F6Nk4vNE1Jdi9BSXFqL2hZdmhUL29aOUcvOEdFWC93QVZYaDMvQUE3MStDbi9BRUFMMy93WlRmOEF4VkgvQUE3MStDbi9BRUFMMy93WlRmOEF4VkdnZThlNC93REN4ZkNuL1F6Nk4vNE1JdjhBNHFqL0FJV0w0VS82R2ZSdi9CaEYvd0RGVjRkL3c3MStDbi9RQXZmL0FBWlRmL0ZVZjhPOWZncC8wQUwzL3dBR1UzL3hWR2dlOGU0LzhMRjhLZjhBUXo2Ti93Q0RDTC80cXA3VHhwNGV2M0MyMnZhWmNNZWl4WGtiRS9rYThILzRkNi9CVC9vQVh2OEE0TXB2L2lxcjNYL0JPMzROVG9SRHAycTJiOW5nMUtUSS93QytzMGFCN3g5TUs2dW9aU0dVOUNEa1U2dmt5VDloYlUvQ0RHNCtIUHhjOFUrR1oxNVNDNm04K0EreENsZVBxRFVML0VuOW9yNERmTjQwOE1XZnhQOEFEVVgrczFYUVBrdTBRZnhNZ0F6K0tmOEFBcUxkZ3YzUjljMFY1ajhHL3dCbzN3Tjhjck10NGMxVURVbzF6UHBONFBLdTRmWEtIcUI2cmtWNmRValR1RkZGRkF3b29vb0FLS0tLQUNpaWlnQW9vb29BS0tLS0FDaWlpZ0Fvb29vQUtLS0tBQ2lpaWdBb29vb0FLS0tLQUNpaWlnQW9vb29BS1pOL3FuLzNUVDZaTi9xbi93QjAwQWZLZi9CT2Iva2xQaXovQUxHZTYvOEFRSTYrcjYrVVArQ2MzL0pLZkZuL0FHTTkxLzZCSFgxZlZTM0pqOEtDaWlpcEtQazM0dy84bjhmQnYvc0UzWC9vTTlmV1ZlQmZ0QWZzc3ovR254em9IaXpUZkcyb2VEdFgwaTFlMWltc1lkejRaaWR5c0dVcWZtWUgxQnJpditHTWZpQi8wY0o0dC9KLy9qMVhvMHRTTlUzb2ZXVkZmSnYvQUF4ajhRUCtqaFBGdjVQL0FQSHFQK0dNZmlCLzBjSjR0L0ovL2oxS3k3anUreDlaVVY4bS93RERHUHhBL3dDamhQRnY1UDhBL0hxUCtHTWZpQi8wY0o0dC9KLy9BSTlSWmR3dSt4OVpVVjhtL3dEREdQeEEvd0NqaFBGdjVQOEEvSHFQK0dNZmlCLzBjSjR0L0ovL0FJOVJaZHd1K3g5WlVWOG0vd0RER1B4QS93Q2poUEZ2NVA4QS9IcVArR01maUIvMGNKNHQvSi8vQUk5Ulpkd3UreDlaVVY4bS93RERHUHhBL3dDamhQRnY1UDhBL0hxUCtHTWZpQi8wY0o0dC9KLy9BSTlSWmR3dSt4OVpVVjhtL3dEREdQeEEvd0NqaFBGdjVQOEEvSHFQK0dNZmlCLzBjSjR0L0ovL0FJOVJaZHd1K3g5WlVWOG0vd0RER1B4QS93Q2poUEZ2NVA4QS9IcVArR01maUIvMGNKNHQvSi8vQUk5Ulpkd3UreDlaVVY4bS93RERHUHhBL3dDamhQRnY1UDhBL0hxUCtHTWZpQi8wY0o0dC9KLy9BSTlSWmR3dSt4OVpVVjhtajlqSDRnZjlIQ2VMZnlrLytQVWY4TVkvRUQvbzRUeGIrVC8vQUI2aXk3aGQ5Zy9aTi81T1AvYUovd0N3ekYvNkhOWDFsWHhqK3dyNGZ1dkNueGcrT09qM3VxejY1ZDJOL2J3UzZsYzU4MjVaV21Ca2JKUEorcHI3T29sdUtPd1VVVVZKWVVVVVVBRkZGRkFCUlJSUUFVVVVVQWVFZkd2OWtudzE4VHJzZUlkQ2xmd1g0NnR6NXR0cjJsZnVtYVFkUE5WY2J2cnczdWVsY3o4SC93Qm8zeEQ0VThaUS9DLzQwVzBlaytLemhOTjE1Zmx0TldYb3BEY0FPZndCUEJBUEIrbmE4OCtPUHdSMEQ0N2VDNTlDMXFMeTdoY3lXT294ajk5WnpkblEvd0F4M0ZWZm95V3VxUFE2SythdjJZUGpCcjFsNGcxTDRPL0VpVGI0NDBCZjlEdlhQR3FXZys3SXBQM21DNE9lNDVQSWF2cFdrMVlhZHdvb29wRENpaWlnQW9vb29BS0tLS0FDaWlpZ0Fvb29vQUtLS0tBQ2lpaWdBb29vb0FLS0tLQUNpaWlnQW9vb29BS0tLS0FDbVRmNnAvOEFkTlBwazMrcWYvZE5BSHluL3dBRTV2OEFrbFBpei9zWjdyLzBDT3ZxK3ZsRC9nbk4vd0FrcDhXZjlqUGRmK2dSMTlYMVV0eVkvQ2dvb29xU2dvb29vQUtLS0tBQ2lpaWdBb29vb0FLS0tLQUNpaWlnQW9vb29BS0tLS0FDaWlpZ0Fvb29vQStUZjJUZitUai9BTm9uL3NNeGYraHpWOVpWOG0vc20vOEFKeC83UlA4QTJHWXYvUTVxK3NxcVc1TWRnb29vcVNnb29vb0FLS0tLQUNpaWlnQW9vb29BS0tLS0FQbXo5czc0WTM5OTRjMDc0bmVGQVlQR3ZncVFYMFVzUSthZTFVNWxqYkhVQVpiSHB1SGV2WlBoSjhTTEQ0dC9EblF2Rm1uRUNEVWJjU1BFRGt4U0RpU00rNnNDUHdycTdpM2p1NEpJSmtXV0dSU2pvd3lHVWpCQi9Ddmsvd0RZL2xrK0Z2eForS2Z3Y3VIWVdtbTN2OXI2UXJuL0FKZDVjWkEvQm92eHpWYm9qWitwOWFVVVVWSllVVVVVQUZGRkZBQlJSUlFBVVVVVUFGRkZGQUJSUlJRQVVVVVVBRkZGRkFCUlJSUUFVVVVVQUZGRkZBQlJSUlFBVXliL0FGVC9BTzZhZlRKdjlVLys2YUFQbFA4QTRKemY4a3A4V2Y4QVl6M1gvb0VkZlY5ZktIL0JPYi9rbFBpei9zWjdyLzBDT3ZxK3FsdVRINFVGZkpmeEovYmF1Zmc3KzBCNGg4STY5b0VtcCtGYk9LMm0rM2FjaE54WnE4YUZtZGVqTHViMlBQZXZyU3ZrandmYVFYLy9BQVVMK0pGdmN3eDNGdkw0WmhTU0tWUXlPcFczeUNEd1JRcmRSU3ZwWStqZmg1OFVmQzN4VzBOTlc4SzYxYmF2WnNCdThsdm5pUDhBZGREOHluMklGZFZYeTU4UlAySjdhejF4L0Z2d2cxMmY0ZGVLMUpmeUxaajlodUQxMnNnKzZENkFGZjhBWnJMOE1mdGdlSlBoWHJNSGhmNDllR0p2RDEyeDh1SHhMWVJHU3l1ZjlvaGNnZTVYUHVvb3RmWUwyM1ByZWlzN3cvNGkwdnhYcE52cW1qYWhiYXBwMXd1Nks2dEpSSkc0OWlLMGFrc0tLS0tBQ2lpaWdBb29vb0FLS0tLQUNpaWlnQW9vb29BS0tLS0FDaWlpZ0Q1Ti9aTi81T1AvQUdpZit3ekYvd0NoelY5WlY4bS9zbS84bkgvdEUvOEFZWmkvOURtcjZ5cXBia3gyQ2lpaXBLQ2lpaWdBb29vb0FLS0tLQUNpaWlnQW9vb29BSytTL2ljUCtFSC9BRytmaHByVVg3dUx4THBNMm1YR09qc29jTG44NC95cjYwcjQwL2JzMXk2OEkvRmI0SGEvcDJtVGF6cU5scVU4a09uMjMrdHVTR2hJalhBUEo2ZEQxcW83a3kydWZaZEZmSjMvQUEyUDhSLytqZWZGZi9mVC93RHhtai9oc2Y0ai93RFJ2UGl2L3ZwLy9qTkhLeGN5UHJHaXZrNy9BSWJIK0kvL0FFYno0ci83NmY4QStNMGY4TmovQUJIL0FPamVmRmYvQUgwLy93QVpvNVdITWo2eG9ybWZodDRyMUR4djRKMHZXOVUwQzc4TDM5M0dYbDBxK09aWUNHSXczQTZnQThnSEI2VjAxU1dGRkZGQUJSUlJRQVVVVVVBRkZGRkFCUlJSUUFVVVVVQUZGRkZBQlJSUlFBVVVVVUFGRkZGQUJUSnY5VS8rNmFmVEp2OEFWUDhBN3BvQStVLytDYzMvQUNTbnhaLzJNOTEvNkJIWDFmWHloL3dUbS81SlQ0cy83R2U2L3dEUUk2K3I2cVc1TWZoUVY4bStCUDhBbElwOFEvOEFzVzRQL1FiZXZyS3ZrM3dKL3dBcEZQaUgvd0JpM0IvNkRiMExxS1hRK3NxeWZFL2hUUnZHbWpUNlRyMm1XdXJhYk9NU1cxM0VKRVB2ZzlEN2ptdGFpcExQa1R4Qit5WDR4K0RHclhIaVQ0QytKNWRPRE41ay9oVFZKZk10TGovWlF0eDlOM1ArMEs2RDRaL3RzYVhjNjJ2aFA0cGFQUDhBRGZ4Z2hDTXQrcFd6bWJwbFpEOTBIdHU0OUdOZlRkY2Q4VFBoRjRSK0wraU5wZml2UkxmVllNSHk1SFhiTkNmV09RZk1wK2hxcjMzSXRiWTYyQ2VPNmhTYUdSSllwRkRKSWpCbFlIb1FSMUZTVjhiVC9CdjR4L3NzelBmZkN6V0pQSHZncEdMeWVGTldiZFBFdmNSSHYvd0RCLzJUWHFmd1gvYkM4RmZGcTZHalhieStFdkZ5SHk1dEQxajkxSnZIVVJzY0IvcHczdFJic05TNk05Mm9vb3FTZ29vb29BS0tLS0FDaWlpZ0Fvb29vQUtLS0tBQ2lpaWdENU4vWk4vNU9QOEEyaWYrd3pGLzZITlgxbFh5Yit5Yi93QW5IL3RFL3dEWVppLzlEbXI2eXFwYmt4MkNpaWlwS0NpaWlnQW9vb29BS0tLS0FDaWlpZ0Fvb29vQUsrVFAyalArS2ovYkQrQTJneC9PMWs4K3B5S095ZzVCUC9mazE5WjE4ay9DOXY4QWhiSDdjdmozeFduNzNTZkIybnJvbHJJT1Y4OXVIeCtJbS9NVlVlNU11eDliVVVVVkpRVVVVVUFGRkZGQUJSUlJRQVVVVVVBRkZGRkFCUlJSUUFVVVVVQUZGRkZBQlJSUlFBVVVVVUFGRkZGQUJSUlJRQVV5Yi9WUC91bW4weWIvQUZUL0FPNmFBUGxQL2duTi93QWtwOFdmOWpQZGYrZ1IxOVgxOFpmc0NlUHZEUGhiNGFlS3JYV2ZFT2xhVGN0NGt1cEZodnIyT0Z5cFdNQmdHSU9NZzgrMWZUdi9BQXVQd0YvME8zaDcvd0FHa0gveFZWTGNpT3lPd3I1TjhDZjhwRlBpSC8yTGNIL29OdlgwRi93dVB3Ri8wTzNoNy93YVFmOEF4VmZPSHdzMXZUdkVQL0JRVHgvZmFWZjIycFdVbmh5RUpjMmtxeXhzUUxjSERLU0RnOFVMcUV1aDlmMFVVVkpZVVVVVUFGZVUvR2o5bWJ3SjhjN1V0cjJsaTMxZFZ4RHJOamlLNmlQYjVnUG1BOUd6K0ZlclVVYkNhdWZHZjIzNDYvc2puRjJrbnhkK0hFSC9BQzNUUDlvV2NZOWVyWUE5ZHkrNjE3OThHLzJqZkF2eHlzQko0YjFkUDdRVmN6YVZkNGl1NGZYS0hxUGRjajNyMDNyWGdQeGsvWTE4SGZFdS9PdjZJODNnanhsRzNteGF6bzM3cmRKMk1pS1FEOVJodmVxdW51VFpyWTkvcENjREo0RmZITnA4ZWZpMSt6SGRSYVo4WWRDazhYZUZBd2poOFlhTW01MVhzWlJ3Q2Y4QWUybjNhajQ1ZkhpTDQvNnI0RitHWHd0OFRJc0hpMW5sMVhWYk5pSmJhMFRKZU1qaGtZaFhKQndlQU9obzVXSE1qM3ZYZjJsdmhaNGExZHRMMUx4NW9sdGZLMng0ZnRRYllmUml1UUQ5VFhmNlByV24rSWRPaDFEUzc2MzFHeG1HNk81dFpWa2pjZXpBa0d2SC9EZjdHWHdlOE9hRkhwbi9BQWhkanFaQ2JaTHpVQVpwNVQzWXVUd1QvczRGZU5ham95ZnNSZkhMd3cyaTZoTkQ4Sy9HZHcxbmVhWmVURm85T3VPTVNLekhnRGNEazlnd0pPQlJaUFlMdGJuMmxSWEgvd0RDNC9BWC9RN2VIdjhBd2FRZi9GVW4vQzVQQVEvNW5idzkvd0NEU0QvNHFsWXE1Mk5GY2Y4QThMajhCZjhBUTdlSHYvQnBCLzhBRlVmOExqOEJmOUR0NGUvOEdrSC9BTVZSWUxuWVVWeC8vQzQvQVgvUTdlSHYvQnBCL3dERlVmOEFDNC9BWC9RN2VIdi9BQWFRZi9GVVdDNTJGRmNjUGpKNENQOEF6TzNoNy93YVFmOEF4VkwvQU1MajhCZjlEdDRlL3dEQnBCLzhWUllMbno3K3liL3ljZjhBdEUvOWhtTC9BTkRtcjZ5cjVHL1krMUMxMVg5b0w5b0s4c3JpSzd0SjlXaWVLZUJ3NlNLWG13VlljRWU0cjY1cHkzRkhZS0tLS2tvS0tLS0FDaWlpZ0Fvb29vQUtLS0tBQ2lpb2J5OGcwNjBudXJxWkxlMmdReVN6U3NGVkZBeVdKUFFBVUFlZGZ0RmZGMjIrQ2Z3bTF2eEpJNi9ibGpOdnA4SjZ5M0xnaU1BZDhINWo3S2E1ajlqcjRUM1B3citEVmtkVlZ2OEFoSTlka2JWOVRlVDcvbVM4cXJlNnJqUHVXcnlydzZzLzdhSHgxaDhTVFJPUGhKNEt1Q3VuSktwQ2FyZWcvd0Nzd2VxakFQMEFIOFJyN0hxbm9yRUxWM0NpaWlwTENpaWlnQW9vb29BS0tLS0FDaWlpZ0Fvb29vQUtLS0tBQ2lpaWdBb29vb0FLS0tLQUNpaWlnQW9vb29BS0tLS0FDa0l5TUhrVXRGQUhnbDcrd3Y4QUJYVUx5ZTZtOEhqelpwR2tmYmUzQ2pKT1RnQjhEazlLZy80WU0rQ1AvUW5uL3dBRDdqLzQ1WDBGUlQ1bVR5cnNmUHYvQUF3WjhFZitoUFAvQUlIM0gveHl2TFBnSDhQTkIrRjM3ZGZqbnc3NGFzdjdQMGkxOE94dEZiK1kwbTB2OW5adm1ZazhrbnZYMnJYeWI0RS81U0tmRVA4QTdGdUQvd0JCdDZwTnU1TFNWckgxbFJSUlVHZ1VVVVVBRkZGYzM0OStJL2hyNFlhSEpxL2lqV2JYUnJCTTRlNGZET2Y3cUwxWSt3Qk5BSFNWNXo4WC93Qm9Id1A4RDlNTno0bzFtT0M1WmN3NmRCKzh1cC85Mk1jNDl6Z2U5ZUFYL3dDMFY4VXYya2J5YlNQZ3A0ZmswRHc3dU1jM2pMV2syREhRbUpTQ0FmcHViMld1L3dEaEIreGY0VThCYWtQRWZpaTRtOGZlTTVHODJYVmRaeklpU2VzY2JFajhXeWZURlZhMjVGMjlqelc2MXI0Mi90aHdTV21rMlA4QXdxejRaM1FLU1hsNm02OXZvajF3T0NRUjZiVi8yalhNZU4vZ1RwZjdGUGozNGNmRWJ3L0JmNm40YXNKSHNmRU56SWZNbFh6UVVFMjBEQ2pERUFEaktnZFRYM3NBQUFBTUFkaFZiVTlNczlhMCs0c0wrMWh2Yks0UXh6Vzg2QjBrVTlReW5naW56QnltVDRkK0lQaHJ4Wm9rV3NhUnJ1bjMrbVNwNWkzTU53cFVEMzUrVStvT0NLK1MvanZxV2svdGNmSFR3VjhOL0RqTHJmaDN3L2N2cVBpTFU3VmlZRVhnR0paQndTUUN1UWVyOGREWGU2MS93VDArRU9yYXJKZVEyZXE2VEZJMjU3S3d2MlNBK3dWZ1NCN0ExN1Q4TmZoUjRVK0VPZ2pTUENlalFhVFprN3BER0Mwa3pmM25jNVpqOVRTdWxzRm05R2VWL3dEREJud1Ivd0NoUC84QUorNC8rT1VmOE1GL0JIL29Uei80SDNIL0FNWFgwRlJSelB1UGxYWStmZjhBaGd6NEkvOEFRbm4vQU1EN2ovNDVSL3d3WjhFZitoUFAvZ2ZjZi9ISytncUtPWjl3NVYyUG4zL2hnejRJL3dEUW5uL3dQdVAvQUk1Ui93QU1HZkJIL29Uei93Q0I5eC84Y3I2Q29vNW4zRGxYWStmZitHQy9nai8wSjUvOEQ3ai9BT0xvL3dDR0RQZ2ovd0JDZWY4QXdQdVAvamxmUVZGSE0rNGNxN0h4eit4SjRaMDd3WjhiZmp2b1drVy8yWFM5TzFLQzJ0b2R4YlpHclRBREpKSi9HdnNhdmszOWszL2s0LzhBYUovN0RNWC9BS0hOWDFsUkxjSTdCUlJSVWxCUlJSUUFVVVVVQUZGRkZBQlJYT2VLZmlQNFY4RVd6ejYvNGowdlI0MUdTYnk3U00vZ0NjbjhLOEI4VmZ0MmFCZjZnMmgvQzd3OXF2eEo4UU1kcUN4dDNqdFZQcXprWkkrZ3g3MDBteE5wSDBqcjNpRFRmQzJrWFdxNnZmUWFicDFxaGttdXJtUUlpS081SnI1RDhRZUsvRS83Y1d2eWVHZkNKdS9EdndldEp0dXE2KzZHT1hWU3A1aWlCL2g5dnhic3RhK2tmczArUC9qMXExdHIvd0FkdGQ4dlM0bkV0dDRLMGVRcGJ4K25tc0R5ZlhCSi93Qm9kSytwOUUwUFQvRFdrMnVtYVZaUWFkcDFxZ2podHJaQWtjYWpzQUtlaUoxa1UvQjNnN1NQQUhoblQvRCtnMlVlbjZWWXhDS0NDTWRBTzVQY2s4a25razF0VVVWSllVVVVVQUZGRkZBQlJSUlFBVVVVVUFGRkZGQUJSUlJRQVVVVVVBRkZGRkFCUlJSUUFVVVVVQUZGRkZBQlJSUlFBVVVVVUFGRkZGQUJSUlJRQVY4bStCUCtVaW54RC83RnVELzBHM3I2eXI1TjhDZjhwRlBpSC8yTGNIL29OdlZMcVJMb2ZXVkZGTmtrU0dOcEpIVkVVRm1aamdBZXBOU1dPcWpyV3Q2ZjRjMHlmVWRWdnJmVHJDM1hmTGMzVWdqalFlcFk4Q3ZuajRwZnRyNkhvdXNud3I4T2RNbitJL2pLUW1OTGJUQVh0b20vMjVGenV4M0M4ZXBGY3JvdjdLM2p6NDdhbmIrSVBqeDRtbGEwVnZOdC9DR2tTZVhidytnZGw0ejY0eWY5cXF0M0o1dXhjOFhmdGs2ejhSTmJuOEsvQWp3ek40dDFRSFpMcjkxR1VzTGJ0dUdjWityRUQwRFZiOEJmc1ZIWHRjajhXL0dqeEJQOFFQRXArZGJGM0lzTGJ2dEM4YmdQVENyN0d2bzd3ajRNMEx3Rm9zT2tlSHRLdGRIMDJFWVMzdEl3aS9VNDZuM1BOYlZGK3djdDl5dllXRnRwZG5EYVdWdkZhV3NLaEk0SUVDSWlqb0FvNEFxeFJSVWxCUlJSUUFVVVVVQUZGRkZBQlJSUlFBVVVVVUFGRkZGQUh5eDRuL1lYL3RueDc0bDhVYVg4VGZFWGh1ZlhieDd1NHQ5TUFqWEpKSVVsV0JZREp4bjFxcC93d3RyWC9SY3ZHMy9mOXY4QTQ1WDFsUlZjeko1VWZKdi9BQXd0clgvUmN2RzMvZjhBYi80NVIvd3d0clgvQUVYTHh0LzMvYi80NVgxbFJSek1PVkh5Yi93d3RyWC9BRVhMeHQvMy9iLzQ1Ui93d3RyWC9SY3ZHMy9mOXY4QTQ1WDFsUlJ6TU9WSHliL3d3dHJYL1JjdkczL2Y5djhBNDVSL3d3dHJYL1JjdkczL0FIL2Ivd0NPVjlaVVVjekRsUjhtL3dEREMydGY5Rnk4YmY4QWY5di9BSTVTZjhNRFBlL0xxbnhoOGJhaEQzaisxYlFmekxWOVowVWN6RGxSODNlR1ArQ2Yvd0FJOUJ1VnViL1R0UThUWElPUytzWHpTQW4zVmRvUDQ1cjNud3g0TzBMd1ZwNjJHZ2FQWTZOWnIwaHNZRmlYOGRvR2Z4cllvcE50alNTMkNpaWlrTUtLS0tBQ2lpaWdBb29vb0FLS0tLQUNpaWlnQW9vb29BS0tLS0FDaWlpZ0Fvb29vQUtLS0tBQ2lpaWdBb29vb0FLS0tLQUNpaWlnQW9vb29BS0tLS0FDdmszd0oveWtVK0lmL1l0d2YrZzI5ZldWZkZYeEwvWngrS1h4Qi9haDhZYTM0YTFpVHdYNGIxQ3l0ckc1MXdOaVdlTHlvOThjS2o1aWNyZ25LampHZTFVaUpkRDJmNDFmdGMrQi9nM0sybG00ZnhKNHFjN0lkQzBqOTdNWFBRT1JrSjlEejZBMTVIRjhMdmpWKzFiSXQxOFJOVGsrRzNnT1FoazhONmFjWFZ3bllTazlQK0IvOThDdmJQZ3IreTM0RStCOFN6NlRwMzlvYTZ3L2ZhM3FPSmJwMlBVZ25oQWZSY2UrYTllb3Vsc0ZtOXppUGhiOEYvQjN3YTBZYWQ0VDBTRFRVSUFsdU1iNTV6NnZJZm1iNmRQUUN1M29vcVM5Z29vb29BS0tLS0FDaWlpZ0Fvb29vQUtLS0tBQ2lpaWdBb29vb0FLS0tLQUNpaWlnQW9vb29BS0tLS0FDaWlpZ0Fvb29vQUtLS0tBQ2lpaWdBb29vb0FLS0tLQUNpaWlnQW9vb29BS0tLS0FDaWlpZ0Fvb29vQUtLS0tBQ2lpaWdBb29vb0FLS0tLQUNpaWlnQW9vb29BS0tLS0FDaWlpZ0Fvb29vQUtLS0tBQ2lpaWdBb29vb0FLS0tLQUNpaWlnQW9vb29BS0tLS0FDaWlpZ0Fvb29vQUtLS0tBQ2lpaWdBb29vb0FLS0tLQUNpaWlnQW9vb29BS0tLS0FDaWlpZ0Fvb29vQUtLS0tBQ2lpaWdBb29vb0FLS0tLQUNpaWlnQW9vb29BS0tLS0FQNXkvK0YxZkV2L29vWGlyL0FNSE56LzhBRjBmOExxK0pmL1JRdkZYL0FJT2JuLzR1dWI4NlAwRkhuUitnb0E2elQvaTU4VWRVMUMxc3JmNGdlS1d1TG1WSVkxT3RYSXl6TUZIOGZxUlhwSGlUNDNhbjhQZGR2L0RxNjE0dDhWWE9uVFBhWGVxWDNpcSt0MWxtUTdaRERGRTQySUdCQTNGaVFNbkdjRHcrM3Zmc2x4RlBDeGptaWNPanFlVllISUkvR3ZROVk4WStBL0hPcHo2enIybWEzcG11WGptYThHalNRdmIzRXg1ZVJVa0FNWlk1SkFMREpPTURpZ0RvYkg0bWVKdkZHaitQdFgwM3hqNDMweUhTZEt0N3UwdFovRXR4T1k1bXU0SW55NEs3bDJ5TmdFWkhHU2NWNkJxMnYrUHRIT2lXMm5lSC9pUjRwaHV0SXNMeHRUdGZFbXFBVHl6VzBjajdkZ0tqRE9RQU05SzgxZlRwdkQ5eDhRdkRlaytGZFF0VnV0Q2dhU0s3dkk1cFlJbzVvTGhwblpWVlczQk1iRkdRVGpuQnJNOGNlTmZFY2QzNFY4VTJoMURRclY5UHRJTk9rUzZPR2UwaWpoYVJRRHhsbzl3QkhRanJRQjMrdTZsNG84T2VLUEZOM2VmRWJ4eVBEbWcyVmxjejZZbmlDVTNndXJsVnhaTktEdEJSeklHZmJrQ00vTHVPSzVLNy9hVTFXL3RMaUR6dkZ1bXVZMkZ2ZFdYaksrYVJIeDhwY1NNeXVNNHlBRjlpSzNQQmNXc2ZFMXZHdXQrR1BoOWM2NzRjbHM3YytLdEkweVFCb3BpN09MbTJDZ3NtSGpad05yQmR6S1J0TmN0NHg4T2VDZkE5bll5WEdsK0pKcnZWOU5Hb1dFTjNkMjhjY2FPWFZHa0tLV0pESTN5NFVuSGJOQUR2aUQ4UlBIM2h1RHdtMWw4UWZGd09wYUZiNmhjYjljdVcvZXU4Z2JIejhEQ2ppdXc4RDY3NHcxK1Q0WExkL0VEeGtSNGhuMUNPKzJhOWNqSWhiRWUzNS9sOS9Xc1hSN0RTdmlUOEtaL0VldWFWcWNOdDRJZ3RkS3V0UzBtNmhQbVJTeXlmWncwRXVEdUJMQXNyWXdCa2R6MFh3VlRVL2l4OFUvQitpZkR2d3hMY1dIaFMydWJsSU5RdjQwa2tFaFBtU3pURUtpRm5kRlZRTWNBY2trMEFVdmhQOGFkVjhSdGNhZHExOTRzdXJteTBlOXYzdlkvR0YvRVpwSUxkNVZ5Z2JDZ2xRRGp0WG4vaWo0L2VOTld1NHBOSDhTK0tkQWdWTnJ3RHhMZVhPOXMvZTNPK1J4eGoycnNmZ1g4S1BGRjdxZmptN2hzOVBzNHRCc2JuUjlWYldOUmpzRnRaYnFPVzNUTFNjSEQ1NDl2ZXZQOEE0bi9ESFcvaEQ0aWgwYnhGQmJKZFQya1Y5QkxaM0tYRU04RWd5a2lPaElJT0RRQlYvd0NGMWZFdi9vb1hpci93YzNQL0FNWFIvd0FMcStKZi9SUXZGWC9nNXVmL0FJdXViODZQMEZIblIrZ29BOXUrSGx4OFNmSGVoV1Y0L3dBV2ZGV24zbXBhd05IMCsyT29YTWl5c3NRbGxrWnZORzFVVmw0QVlrc0FCWFkyWGczeDdlMmxyZW40MitNTFMwMUNKSHNSY3kzU1RFK1JjelA1eWZhUDNTcWx1R3psdmxtUTQ3VjQ3NGM4QWVKZGM4QXQ0bzBXVjVyUFRMNlpmczBOeHNsZ2FPQlpwSmtCSXlRZ0JPekxZUWs4Q3UwMTc0RWZFZTNsdW0vdGkzMWkrYlVyZXc4aTMxdEpKN21lNnQ5d3dESmtrcDhoQitZanNWNW9BMi9IZDM0djhJL0RKZFRmNGkrT204U3ZQWlcwY0Z2cWx5OEdXc1V1cmplVExsV0hueGpnWUcwOGNraTFmK0MvaXJieGFhbHY4V1BHRnhldTlzTDZDUzh1SVZnU1N5KzF5UEc3emhaQkVuRGs3UUN5ODgxNVBkK0hmSFdsYWxGcGx6TGZReWFoTGJsVlhVQkpIY05OdWhqWUZISWZPMTBKR2NZS25IU3VnOFVhVjhRdGUxS1h4TytzdmZTUitmTDl0Z3Z2czBWdW5teVFqeXl6SXFpVXd5YlVUbGdwNG9BOUp2UEIvanZ3cjRvaDAvVnZqSDRydkdON2R4cmJSMzl5QTl2YTJrZHpQSkk2ei9JVkRtUEM3dm1RODQ1clY4UWVFL0ZQaFh4UExiYXI4VVBHNldLZUdVMUovc2VxWFU0UzVaSVlBQS9tcUhrKzFTa0dJWTJnQUZnVHg0cnFmd3grSUwzMGJvTDdVUFBsZTJpdUpMd0k4cnZESE5Nb0R2dXhzbFZuUFRCeXh4V1pKNGE4ZHRCSVhsdnByUXRjWEx5eGFpSm9tTVRRbWFRRlhJYkRQQ1NSbkoya1p4d0FkTGRlSlBpQm9QaXp4N3B0OThUdkZkOVkrRjQ3cVA3VmI2emN4aWVaWlJCRHdYT0FaR1VrZWl0ejNyMmJ3TDRPMXp4UjhKTkQ4VFQvQUJjOFZ4YTNlZUZOYjFZNlAvYjE1NTl4Y1dzenBDOGVBVUVZQ2dNck9DU2VLOGIxdjRIZUxQRCtqNncxenExbWJTNHQ3blViaUUzS21lZHJXOGEySWtRbmNyYnl6QW41ZWVUbXF1amZCNzRoM2RoZXBCTkxiTllXVVJ0cllha2dqdUxlNW5NUlNHUVNlWHRNZ0laZDNMY1lKb0EraHo4RXZHM2cwM2JlSnZpMzR6dTdhYlI1cDBNV3B6eFQyRjFEZldrRW9aRW5kWEFXNGJBM0RucUJpdVMxRFF2RVBqYjlwcnhyNEE4Sy9Ganhob1dqNk04bHZaaTUxVzRtbnVwNDVFaU1TK1pPaTdtY3NjczZnNDRHU0JYZzF0SjhRUEYzOXF1K3BhdGNycFMrUmV5YWhxYlJyQmx1SWlaWEEzRXhEQ0RrbVBwOHZHcnBQZ0w0bzZacW8xVFQ0OVVzTlIxQ0NXZVcraTFKWVpTZ1JacFBQazh3RkRzWlhJa0lKQkJ4UUI5Qi9EajRKZkV1NzhVZUdadkVYeFI4WXo2RmV6NllseERIcUYzQ3ptN2E1Um9sa0VwRzZNMi9PTS9leHgzbGkrREhpdytHWGtiNDErUGpxdC9mYUxIcHAzWFNDR0crYWFQL0FFcUl6Ym95SGlQelp4Z0wxMzhmUGszaGI0bTZIZTZYb21wYWhxdWl3SzF6SmJyTHFUbUcyYTNVeXpIQ09kaktEdXhnSDV3Ujk3SjB0RDhBL0VqVmRaMUk2aDRqdTlGdnZLdFJkUzNPcFN6VHN6U3BIYnhTckNYZFdEc3ZEZ2JPcHhRQjZwWi9CejRrNi80WDhTYXhvZnh3OFZYTVdsWE10dEJMZlhVOXREZWVUTkZET1ZQMmxuVUs4M1VwZ2dkUm5BMExYNFYrS1o0UEcyanA4YWZpRko0bjBYVjlPMGVDVzRGM2IycGxubWxoZDJCbUxHSGRHTVM4WUg4SnpnZUphcjhQZkcvaGp3UmN5M25pT2UwMDVtRnpxT2xwYzNKU0tPUzVhMk0wb1VlVzVNc1pCVUV0MEpIcHQzSHdxK0kycFhtcXUvaXJVTCsyZzBxMWttdVJKZlNTeXd5NzJndDJoMmVhUDlXN2JXVUtBTjNjWkFPNzhhL0Mvd0FkK0J2RFd1ZUlyLzQ3K01JOUgwK3pXYUlTL2JJN3FlWTNVMXI1WmhNL3lLWkljaHlTQ3JaeGtZcjV0LzRYVjhUUCtpZytLdjhBd2MzUC93QVhYVDNIaC94ZjRpMHF4MXp4SjRndUYwUFdaVXNWMUs2MUJyN3paVVhmSEM4VWJQSmtaR0F5L0tXSFROY2g0NThORHdONHcxanc5TmQyK29UNlpjdmF5WEZydTh0M1U0YmJ1QVBCeU9SMm9Bc2Y4THErSmY4QTBVTHhWLzRPYm4vNHVqL2hkWHhML3dDaWhlS3YvQnpjL3dEeGRjMzUwZm9LUE9qOUJRQjBuL0M2dmlYL0FORkM4VmYrRG01LytMby80WFY4Uy84QW9vWGlyL3djM1A4QThYWE4rZEg2Q2p6by9RVUFkSi93dXI0bC93RFJRdkZYL2c1dWYvaTZQK0YxZkV2L0FLS0Y0cS84SE56L0FQRjF6Zm5SK2dvODZQMEZBSFNmOExxK0pmOEEwVUx4Vi80T2JuLzR1ai9oZFh4TC93Q2loZUt2L0J6Yy93RHhkYzM1MGZvS1BPajlCUUIwbi9DNnZpWC9BTkZDOFZmK0RtNS8rTG8vNFhWOFMvOEFvb1hpci93YzNQOEE4WFhOK2RINkNqem8vUVVBZEovd3VyNGwvd0RSUXZGWC9nNXVmL2k2UCtGMWZFdi9BS0tGNHEvOEhOei9BUEYxemZuUitnbzg2UDBGQUhTZjhMcStKZjhBMFVMeFYvNE9ibi80dWovaGRYeEwvd0NpaGVLdi9CemMvd0R4ZGMzNTBmb0tQT2o5QlFCMG4vQzZ2aVgvQU5GQzhWZitEbTUvK0xvLzRYVjhTLzhBb29YaXIvd2MzUDhBOFhYTitkSDZDanpvL1FVQWRKL3d1cjRsL3dEUlF2RlgvZzV1Zi9pNlArRjFmRXYvQUtLRjRxLzhITnovQVBGMXpmblIrZ284NlAwRkFIU2Y4THErSmY4QTBVTHhWLzRPYm4vNHVqL2hkWHhML3dDaWhlS3YvQnpjL3dEeGRjMzUwZm9LUE9qOUJRQjBuL0M2dmlYL0FORkM4VmYrRG01LytMby80WFY4Uy84QW9vWGlyL3djM1A4QThYWE4rZEg2Q2p6by9RVUFkSi93dXI0bC93RFJRdkZYL2c1dWYvaTZQK0YxZkV2L0FLS0Y0cS84SE56L0FQRjF6Zm5SK2dvODZQMEZBSFNmOExxK0pmOEEwVUx4Vi80T2JuLzR1ai9oZFh4TC93Q2loZUt2L0J6Yy93RHhkYzM1MGZvS1BPajlCUUIwbi9DNnZpWC9BTkZDOFZmK0RtNS8rTG8vNFhWOFMvOEFvb1hpci93YzNQOEE4WFhOK2RINkNqem8vUVVBZEovd3VyNGwvd0RSUXZGWC9nNXVmL2k2UCtGMWZFdi9BS0tGNHEvOEhOei9BUEYxemZuUitnbzg2UDBGQUhTZjhMcStKZjhBMFVMeFYvNE9ibi80dWovaGRYeEwvd0NpaGVLdi9CemMvd0R4ZGMzNTBmb0tQT2o5QlFCMG4vQzZ2aVgvQU5GQzhWZitEbTUvK0xvLzRYVjhTLzhBb29YaXIvd2MzUDhBOFhYTitkSDZDanpvL1FVQWRKL3d1cjRsL3dEUlF2RlgvZzV1Zi9pNlArRjFmRXYvQUtLRjRxLzhITnovQVBGMXpmblIrZ284NlAwRkFIU2Y4THErSmY4QTBVTHhWLzRPYm4vNHVqL2hkWHhML3dDaWhlS3YvQnpjL3dEeGRjMzUwZm9LUE9qOUJRQmlmYUhvKzBQUlJRQXNkNUpFNnVqYlhVaGdSMklydWREK052aVRUYjladFN1RDRodEFwQnNkUk8rSXYxUi9xamhXSCs3ZzhFMFVVQU1nK01tdFcra2FaYXFzYlh0bmUvYTMxQnlUTGNvR1owaGs3RkE4a3B4Mzh6QjZDb2RTK0wvaUtYVjc2NjBxOW0wS3l1SFh5OU9zcFdFTUVhS0VqUlFmN3FnREo1T09hS0tBUFR2Z3YrM0g4U1BnWm8vaWlEUkx1SzkxTFcwaGlUVU5TQm1Oa0Uza21OUHVsanU2dGtESFExemZ4Sy9hYzhjZkVLNzBTOHVkWXZMZTh0Tk1qczdpWko4bTZrRWtqTk13Q2dLVHZ4Z2NjVVVVQWJYd3IvYUZoMDd3ZDQxOE0rTnZEMXg0NDAzeEcxaTBySFZXc3BZZnN6dTZBT3NiNUJMKzNTdG5RUDJvdEsrRVBoL3hIcHZnUDRjNmJZSnIxM2J2Y3ZydDlMcVJXR0ZReVFyZ1JuL1cvdk01NmdESEdhS0tBT3kwUDl1UTIvaWJ4enJ2L0NHUHAxOTQwdHRQZlZIMFBXV3NtRjFCdjN6eHQ1VDdSS1NDeTg0NTVPYThYL2FRK09yZkhQeGpwdXFuUlJwRDZkcDBXbkdTVzdOM2MzZXdzUkxQTVZYZStHMjUyamdDaWlnRHlmN1E5SDJoNktLQU92OEFESHhhMXZ3bG9nMHF4VzJOc0pidWJNc1padDF4YW0xazV6L3p6Sng2SG4ycjBEd0YrMFpxMHZqelE1dFEwUFNiMGYycFlYMHBWSkkza3VMWlBMU1hPOGdNMFoyc05wVWpuYUR6UlJRQnlaK050Ni9pRFRkU2ZSTkxqT2syL3dCbjB5QzJSNDBzc2Vhd0taWWsvdlpqSWQyY2xRQVFLZ24rTTEvTnB0MXBVbWxhZmQ2TFBhMmR1dGhlcThpd3ZieE1pVEl5c3BENWtsWTlpWkRrR2lpZ0M3ZGZ0RWVLYnpWTk12cFk3Qm5zSHVHV0l3RXh6TE5iUlcwc2NnM2NxMFVLampCNVlnOU1SMkh4NzFuU3ZEdDdvbGpwR2pXdGhjQzRTSUpCSVd0WTUvSk1xUk1YSnd4Z2pQemJqa0huazBVVUFYN3Y5cGp4UmZYRTkxTlk2UTk5TjlwVTNUV3pGaEhQZEM2ZUxhWDJsZk5HUmxTY0VqSkZhZXBmdGJlTGRabkw2aHBlaVg4UGx4eHJiM01FMGlMc3VtdWtJSmwzWkVyRWpuR1BseGppaWlnRGpZL2pCcVRXZXMydDdwbWw2bkJyRW91cjFidUZ6NXQwSGxaYm5LdU1TRHpuWGpDa0VBcWExOVIvYUw4VWFscHQxWnZiNmJFTDIybGd2cG9iY3JKZU05dXR1WlpEdXh2RWFnRGFBTWtuQkpORkZBRE5WL2FCOFFhNVo2ekZlVzlwNTJvUGN6TGNRS1VhQ1M0RnVzeFhrNUJTMlZRTzI5dXVhVzEvYUQxMng4YlA0dHQ5TTB1MzE2VldOeGN3TE5HTGlZc3JHYVJWbEFadHlnN2NiRGs1VTVvb29Bb044Yi9FVXZoU2Z3OVA1TnpwOTNlQzl2aE8wckc4YnpUTHRjYjlxcVhPVDVZVW5BeVRpdGkwL2FWOFRXRjliVDI5anBTVzFtbHN0bFpHR1JvcldTM2VSNFpWSmtMTTZ0TkljdXpBN3NFRUFBRkZBRkNiNDhhdE1uZ3dEUnRIamw4S1NDYXlrU0tYRXJoekl6U3A1bXhtWnlHWmdvSjJxTTRHSzRDODFPNHY3dWU2dUpETGNUeU5MSkl4eVdaamtrL1VtaWlnQ0w3UTlIMmg2S0tBRDdROUgyaDZLS0FEN1E5SDJoNktLQUQ3UTlIMmg2S0tBRDdROUgyaDZLS0FEN1E5SDJoNktLQUQ3UTlIMmg2S0tBRDdROUgyaDZLS0FEN1E5SDJoNktLQUQ3UTlIMmg2S0tBRDdROUgyaDZLS0FEN1E5SDJoNktLQUQ3UTlIMmg2S0tBRDdROUgyaDZLS0FEN1E5SDJoNktLQUQ3UTlIMmg2S0tBRDdROUgyaDZLS0FEN1E5SDJoNktLQUQ3UTlIMmg2S0tBUC8yUT09IiBoZWlnaHQ9IjQwNSIgd2lkdGg9IjU0MCIvPjxjbGlwUGF0aCBpZD0iY2xpcDMiPjxyZWN0IGhlaWdodD0iMzU4MTQwMCIgd2lkdGg9IjUxMzA1OTYiIHk9IjAiIHg9IjAiLz48L2NsaXBQYXRoPjwvZGVmcz48ZyB0cmFuc2Zvcm09InRyYW5zbGF0ZSgtNjk5IC0xNzgpIiBjbGlwLXBhdGg9InVybCgjY2xpcDApIj48ZyB0cmFuc2Zvcm09Im1hdHJpeCgwLjAwMDEwNDk4NyAwIDAgMC4wMDAxMDQ5ODcgNjk5IDE3OCkiIGNsaXAtcGF0aD0idXJsKCNjbGlwMSkiPjxnIHRyYW5zZm9ybT0ibWF0cml4KDEuMDAyNTIgMCAwIDEgLTAuNSAtMC4xMjUpIiBjbGlwLXBhdGg9InVybCgjY2xpcDMpIj48dXNlIHRyYW5zZm9ybT0ic2NhbGUoOTUwMS4xIDk1MDEuMSkiIHhsaW5rOmhyZWY9IiNpbWcyIiBoZWlnaHQ9IjEwMCUiIHdpZHRoPSIxMDAlIi8+PC9nPjwvZz48L2c+PC9zdmc+;container=0;" vertex="1" parent="ghxn6bWZeJkdUQLqd-FK-19">
          <mxGeometry y="90" width="540" height="404" as="geometry" />
        </mxCell>
        <mxCell id="ghxn6bWZeJkdUQLqd-FK-2" value="a" style="text;html=1;whiteSpace=wrap;strokeColor=none;fillColor=none;align=center;verticalAlign=middle;rounded=0;fontSize=50;container=0;" vertex="1" parent="ghxn6bWZeJkdUQLqd-FK-19">
          <mxGeometry y="110" width="60" height="30" as="geometry" />
        </mxCell>
        <mxCell id="ghxn6bWZeJkdUQLqd-FK-3" value="b" style="text;html=1;whiteSpace=wrap;strokeColor=none;fillColor=none;align=center;verticalAlign=middle;rounded=0;fontSize=50;container=0;" vertex="1" parent="ghxn6bWZeJkdUQLqd-FK-19">
          <mxGeometry y="180" width="60" height="30" as="geometry" />
        </mxCell>
        <mxCell id="ghxn6bWZeJkdUQLqd-FK-5" value="difference" style="text;html=1;whiteSpace=wrap;strokeColor=none;fillColor=none;align=center;verticalAlign=middle;rounded=0;fontSize=50;container=0;" vertex="1" parent="ghxn6bWZeJkdUQLqd-FK-19">
          <mxGeometry x="577" y="150" width="60" height="30" as="geometry" />
        </mxCell>
        <mxCell id="ghxn6bWZeJkdUQLqd-FK-6" value="borrow" style="text;html=1;whiteSpace=wrap;strokeColor=none;fillColor=none;align=center;verticalAlign=middle;rounded=0;fontSize=50;container=0;" vertex="1" parent="ghxn6bWZeJkdUQLqd-FK-19">
          <mxGeometry x="550" y="360" width="60" height="30" as="geometry" />
        </mxCell>
        <mxCell id="ghxn6bWZeJkdUQLqd-FK-10" value="x1" style="text;html=1;whiteSpace=wrap;strokeColor=none;fillColor=none;align=center;verticalAlign=middle;rounded=0;fontSize=50;container=0;" vertex="1" parent="ghxn6bWZeJkdUQLqd-FK-19">
          <mxGeometry x="350" y="150" width="60" height="30" as="geometry" />
        </mxCell>
        <mxCell id="ghxn6bWZeJkdUQLqd-FK-11" value="x2" style="text;html=1;whiteSpace=wrap;strokeColor=none;fillColor=none;align=center;verticalAlign=middle;rounded=0;fontSize=50;container=0;" vertex="1" parent="ghxn6bWZeJkdUQLqd-FK-19">
          <mxGeometry x="350" y="360" width="60" height="30" as="geometry" />
        </mxCell>
        <mxCell id="ghxn6bWZeJkdUQLqd-FK-12" value="n1" style="text;html=1;whiteSpace=wrap;strokeColor=none;fillColor=none;align=center;verticalAlign=middle;rounded=0;fontSize=30;container=0;" vertex="1" parent="ghxn6bWZeJkdUQLqd-FK-19">
          <mxGeometry x="150" y="390" width="60" height="30" as="geometry" />
        </mxCell>
        <mxCell id="ghxn6bWZeJkdUQLqd-FK-13" value="a_bar" style="text;html=1;whiteSpace=wrap;strokeColor=none;fillColor=none;align=center;verticalAlign=middle;rounded=0;fontSize=50;container=0;" vertex="1" parent="ghxn6bWZeJkdUQLqd-FK-19">
          <mxGeometry x="275" y="503" width="60" height="30" as="geometry" />
        </mxCell>
        <mxCell id="ghxn6bWZeJkdUQLqd-FK-15" value="" style="endArrow=classic;html=1;rounded=0;strokeWidth=3;" edge="1" parent="ghxn6bWZeJkdUQLqd-FK-19">
          <mxGeometry width="50" height="50" relative="1" as="geometry">
            <mxPoint x="273" y="418" as="sourcePoint" />
            <mxPoint x="294" y="487" as="targetPoint" />
          </mxGeometry>
        </mxCell>
        <mxCell id="ghxn6bWZeJkdUQLqd-FK-18" value="Half Subtractor" style="text;html=1;whiteSpace=wrap;strokeColor=none;fillColor=none;align=center;verticalAlign=middle;rounded=0;fontSize=50;container=0;fontStyle=1" vertex="1" parent="ghxn6bWZeJkdUQLqd-FK-19">
          <mxGeometry x="126" width="457" height="30" as="geometry" />
        </mxCell>
      </root>
    </mxGraphModel>
  </diagram>
</mxfile>
